PathFileType	4	(X/Y/Z)	C:/Users/dbak576/Desktop/Duncan Bakke Modelling Files/H25s1/Static_H25s1.trc	
DataRate	CameraRate	NumFrames	NumMarkers	Units	OrigDataRate	OrigDataStartFrame	OrigNumFrames	
200.00	200.00	4	62	mm	200.00	149	296	
Frame#	Time	LFHD			RFHD			LBHD			RBHD			C7			T10			CLAV			STRN			RBack			LASI			RASI			LPSI			RPSI			RACR1			RUA1			RElbow			RElbowM			RFA1			RWRR			RWRU			RCAR			LACR1			LUA1			LElbow			LElbowM			LFA1			LWRR			LWRU			LCAR			RTH1			RTH3			RTH2			RTH4			RLFC			RMFC			RTB1			RTB3			RTB2			RTB4			RLMAL			RMMAL			RCAL			RMT1			RMT5			RToe			LTH1			LTH3			LTH2			LTH4			LLFC			LMFC			LTB1			LTB3			LTB2			LTB4			LLMAL			LMMAL			LCAL			LMT1			LMT5			LToe			*61			
		X1	Y1	Z1	X2	Y2	Z2	X3	Y3	Z3	X4	Y4	Z4	X5	Y5	Z5	X6	Y6	Z6	X7	Y7	Z7	X8	Y8	Z8	X9	Y9	Z9	X10	Y10	Z10	X11	Y11	Z11	X12	Y12	Z12	X13	Y13	Z13	X14	Y14	Z14	X15	Y15	Z15	X16	Y16	Z16	X17	Y17	Z17	X18	Y18	Z18	X19	Y19	Z19	X20	Y20	Z20	X21	Y21	Z21	X22	Y22	Z22	X23	Y23	Z23	X24	Y24	Z24	X25	Y25	Z25	X26	Y26	Z26	X27	Y27	Z27	X28	Y28	Z28	X29	Y29	Z29	X30	Y30	Z30	X31	Y31	Z31	X32	Y32	Z32	X33	Y33	Z33	X34	Y34	Z34	X35	Y35	Z35	X36	Y36	Z36	X37	Y37	Z37	X38	Y38	Z38	X39	Y39	Z39	X40	Y40	Z40	X41	Y41	Z41	X42	Y42	Z42	X43	Y43	Z43	X44	Y44	Z44	X45	Y45	Z45	X46	Y46	Z46	X47	Y47	Z47	X48	Y48	Z48	X49	Y49	Z49	X50	Y50	Z50	X51	Y51	Z51	X52	Y52	Z52	X53	Y53	Z53	X54	Y54	Z54	X55	Y55	Z55	X56	Y56	Z56	X57	Y57	Z57	X58	Y58	Z58	X59	Y59	Z59	X60	Y60	Z60	X61	Y61	Z61	X62	Y62	Z62	

149	0.740	-63.95517	-268.71838	1732.19104	40.91281	-275.28088	1726.21655	-94.05888	-436.00824	1724.16235	47.74593	-447.31918	1720.10205	-22.19821	-516.99622	1572.07837	-30.54589	-514.01117	1210.26416	-36.54184	-337.03387	1505.04700	-15.94623	-252.05702	1340.40491	86.25729	-581.09509	1470.25171	-174.64706	-297.27972	1049.07996	144.71556	-326.12769	1051.02612	-87.23477	-525.53784	1096.73511	22.08290	-532.77478	1085.59460	133.02333	-433.59409	1569.61084	283.11331	-425.84610	1519.44836	430.09702	-396.39835	1455.48987	400.62057	-322.38068	1409.71802	564.12842	-340.01263	1501.48596	684.97650	-263.53748	1513.08972	697.01599	-284.53986	1430.62781	746.72131	-280.60764	1477.58069	-186.15692	-442.24008	1559.33948	-334.54364	-429.09793	1522.22644	-491.27634	-393.51706	1474.29712	-467.41888	-331.85559	1413.61511	-625.20874	-337.74396	1514.20996	-734.96405	-261.51593	1519.71362	-741.79871	-302.26465	1437.21765	-792.03473	-290.04428	1494.70203	192.87575	-461.02371	834.54205	197.10052	-464.05869	662.17548	209.41370	-405.59406	747.14520	195.31361	-464.68552	746.19171	201.10135	-466.10620	522.88910	52.00959	-463.46878	502.08075	133.83257	-422.62988	367.34848	138.48488	-451.61560	196.84407	197.76129	-440.97595	285.00323	135.56323	-437.25928	281.69046	187.95428	-516.00653	80.52199	96.46056	-482.87851	99.41781	150.11737	-575.98053	43.82122	135.98135	-354.31760	52.03466	231.19093	-397.08545	32.63803	149.35178	-300.88141	33.66385	-243.48967	-393.28394	833.90350	-224.33690	-412.53751	661.48425	-219.55365	-346.16321	742.56110	-238.45058	-402.10870	748.58167	-209.13824	-459.13547	516.68250	-67.21674	-452.30618	505.05478	-115.16479	-431.46289	361.66803	-121.05212	-452.76721	191.70645	-177.68329	-426.09753	275.94427	-117.13194	-444.42206	277.21753	-186.34120	-504.85413	73.00507	-87.35365	-481.62552	91.16988	-149.69583	-569.70941	44.75803	-133.62425	-342.21945	45.03173	-224.34917	-390.16284	28.89789	-153.67978	-285.47498	27.18420	-221.88293	-462.64017	917.00580 
150	0.745	-63.94513	-268.66406	1732.14917	40.90456	-275.16891	1726.22131	-94.03781	-435.91998	1724.20093	47.70342	-447.28299	1720.14026	-22.21713	-516.94519	1572.06787	-30.53419	-513.97546	1210.28259	-36.54756	-337.00879	1505.03784	-15.93747	-252.05685	1340.40198	86.23822	-581.06287	1470.27649	-174.58571	-297.26309	1049.03992	144.72176	-326.13040	1051.03308	-87.22153	-525.54193	1096.75391	22.12293	-532.73010	1085.61426	133.13739	-433.62430	1569.68787	283.11942	-425.83838	1519.44714	430.09518	-396.43057	1455.51660	400.48013	-322.41614	1409.50476	564.14911	-340.05246	1501.56616	684.96362	-263.54584	1513.17322	697.02710	-284.60501	1430.68494	746.81445	-280.67981	1477.67688	-186.25887	-442.25516	1559.41650	-334.54532	-429.02841	1522.22888	-491.30151	-393.52750	1474.31348	-467.46512	-331.89120	1413.59717	-625.20642	-337.76016	1514.21362	-734.97223	-261.56320	1519.78027	-741.87555	-302.30310	1437.31665	-791.99585	-290.09668	1494.70837	192.87590	-461.06833	834.54297	197.13239	-464.04877	662.18140	209.46313	-405.58582	747.18530	195.34001	-464.72958	746.20941	201.10738	-466.11145	522.89160	52.01035	-463.51984	502.07669	133.86224	-422.61658	367.38593	138.57401	-451.56116	196.78526	197.78268	-440.98160	285.03253	135.56776	-437.26358	281.69315	187.95836	-515.99951	80.54460	96.46982	-482.87616	99.44545	150.11398	-575.97058	43.84979	135.98299	-354.31833	52.03411	231.17554	-397.05545	32.66657	149.34378	-300.85107	33.68254	-243.48746	-393.28439	833.90186	-224.32524	-412.54224	661.50635	-219.57576	-346.17819	742.59857	-238.40569	-402.10727	748.54291	-209.15521	-459.14819	516.66486	-67.21354	-452.30502	505.05219	-115.12465	-431.35605	361.61838	-120.97977	-452.87064	191.70345	-177.65067	-426.10883	275.96167	-117.10887	-444.48785	277.18088	-186.30107	-504.66986	72.87986	-87.33813	-481.64410	91.18364	-149.70296	-569.71173	44.75984	-133.61104	-342.21442	45.04801	-224.44691	-390.20410	28.93454	-153.70702	-285.49088	27.20490	-221.79341	-462.60507	916.98651 
151	0.750	-63.96198	-268.57263	1732.10266	40.89587	-275.15799	1726.21948	-94.05121	-435.89029	1724.21545	47.65194	-447.20267	1720.17297	-22.21057	-516.91821	1572.07727	-30.54595	-513.98309	1210.30115	-36.52658	-336.96442	1505.04248	-15.96262	-252.03854	1340.40149	86.22385	-581.02600	1470.27808	-174.59996	-297.27448	1049.04749	144.74745	-326.12372	1051.03394	-87.22079	-525.54218	1096.75464	22.09725	-532.76520	1085.65234	132.94371	-433.53043	1569.55750	283.11703	-425.84555	1519.52539	430.05099	-396.41983	1455.52856	400.49121	-322.39713	1409.56055	564.21057	-340.06284	1501.59534	684.99976	-263.63058	1513.21777	697.09259	-284.64954	1430.71069	746.85266	-280.70795	1477.72070	-186.32339	-442.21701	1559.45984	-334.53714	-429.02792	1522.24963	-491.30475	-393.52853	1474.31482	-467.47910	-331.88980	1413.65198	-625.23083	-337.78265	1514.31970	-735.02606	-261.57782	1519.81458	-741.83313	-302.35760	1437.32983	-792.07306	-290.17429	1494.78821	192.87535	-461.07288	834.54321	196.73099	-463.70801	662.22803	209.45184	-405.65442	747.14246	195.31940	-464.69275	746.19525	201.10364	-466.10663	522.89032	52.02810	-463.52032	502.09955	133.83673	-422.62827	367.35263	138.59232	-451.55466	196.77473	197.79677	-440.98502	285.04306	135.56696	-437.25986	281.69000	187.95538	-516.00446	80.52975	96.50558	-482.86929	99.43231	150.15414	-575.99670	43.80342	135.98167	-354.31918	52.03493	231.18767	-397.07910	32.66019	149.33601	-300.85254	33.66938	-243.48882	-393.28427	833.90253	-224.32521	-412.54266	661.50775	-219.56691	-346.17834	742.59808	-238.33296	-402.07913	748.51453	-209.13678	-459.13754	516.68121	-67.16209	-452.32318	505.04764	-115.19936	-431.35040	361.63873	-121.02308	-452.80557	191.65552	-177.64781	-426.11118	275.96457	-117.09995	-444.50388	277.17136	-186.29361	-504.68326	72.83715	-87.33839	-481.62686	91.18524	-149.69904	-569.71210	44.75786	-133.61565	-342.23145	44.99185	-224.44498	-390.19934	28.92324	-153.70499	-285.51141	27.19236	-221.75903	-462.57007	916.97351 
152	0.755	-63.97670	-268.49088	1732.04712	40.88303	-275.14603	1726.22021	-94.04288	-435.79309	1724.16980	47.66006	-447.11877	1720.15063	-22.19826	-516.90637	1572.07019	-30.52997	-513.97980	1210.32910	-36.53245	-336.93204	1505.02612	-15.96781	-252.03680	1340.40210	86.22482	-581.02380	1470.27551	-174.57356	-297.25839	1049.06616	144.70633	-326.13766	1051.02722	-87.19131	-525.53296	1096.74817	22.09744	-532.69574	1085.63196	132.96976	-433.50522	1569.58496	283.09467	-425.85666	1519.54346	430.12830	-396.44162	1455.59497	400.53146	-322.40762	1409.56421	564.24005	-340.10873	1501.67932	685.00726	-263.63980	1513.28015	697.07031	-284.71375	1430.75085	746.91479	-280.77960	1477.75623	-186.33177	-442.19449	1559.47119	-334.54550	-429.03735	1522.26917	-491.33844	-393.53574	1474.36877	-467.48959	-331.94321	1413.68152	-625.21808	-337.77661	1514.34290	-735.01929	-261.64404	1519.85559	-741.87646	-302.38782	1437.43945	-792.09119	-290.24628	1494.84058	192.87552	-461.07108	834.54309	197.09344	-464.01239	662.17438	209.44637	-405.64890	747.15997	195.34306	-464.72577	746.19910	201.10258	-466.10574	522.88971	52.02429	-463.51556	502.08191	133.80710	-422.65338	367.35574	138.61069	-451.55820	196.79703	197.81001	-440.99078	285.00543	135.57315	-437.25812	281.69125	187.95409	-516.00494	80.52731	96.46523	-482.89355	99.40548	150.16687	-575.99731	43.86969	135.95319	-354.30362	52.05661	231.19637	-397.06470	32.62960	149.34689	-300.84558	33.66837	-243.46010	-393.28293	833.91803	-224.32274	-412.54041	661.50586	-219.53598	-346.20404	742.59467	-238.42630	-402.11627	748.54932	-209.12907	-459.13663	516.72620	-67.12762	-452.36469	505.07410	-115.17735	-431.36566	361.61368	-121.05817	-452.78506	191.68304	-177.66978	-426.10544	275.94006	-117.10017	-444.50262	277.17596	-186.31631	-504.88663	73.00581	-87.33199	-481.62759	91.18742	-149.70982	-569.68597	44.75639	-133.59944	-342.22620	45.02841	-224.31871	-390.15015	28.92690	-153.70383	-285.48303	27.20620	-221.73064	-462.53766	916.99200 
